<?xml version="1.0" standalone="no"?>
<!DOCTYPE svg PUBLIC "-//W3C//DTD SVG 20010904//EN"
 "http://www.w3.org/TR/2001/REC-SVG-20010904/DTD/svg10.dtd">
<svg version="1.0" xmlns="http://www.w3.org/2000/svg"
 width="128.000000pt" height="128.000000pt" viewBox="0 0 128.000000 128.000000"
 preserveAspectRatio="xMidYMid meet">
<metadata>
Created by potrace 1.11, written by Peter Selinger 2001-2013
</metadata>
<g transform="translate(0.000000,128.000000) scale(0.100000,-0.100000)"
fill="#000000" stroke="none">
<path d="M560 1130 c0 -5 -7 -10 -16 -10 -20 0 -44 -24 -44 -44 0 -12 -10 -16
-35 -16 -53 0 -105 -55 -105 -110 0 -43 17 -70 44 -70 11 0 16 -9 16 -30 0
-16 5 -30 10 -30 6 0 10 -7 10 -15 0 -20 45 -65 65 -65 8 0 15 -4 15 -10 0 -5
9 -10 20 -10 11 0 20 -4 20 -10 0 -5 9 -10 20 -10 12 0 20 -7 20 -16 0 -25
-26 -44 -60 -44 -48 0 -60 -19 -60 -94 0 -37 -4 -66 -10 -66 -15 0 -12 -29 4
-46 8 -8 22 -14 30 -14 9 0 16 -8 16 -20 0 -11 5 -20 10 -20 6 0 10 -40 10
-100 0 -82 -3 -100 -15 -100 -8 0 -15 -9 -15 -20 0 -18 7 -20 55 -20 l55 0 0
60 c0 33 4 60 10 60 6 0 10 -27 10 -60 l0 -60 55 0 c48 0 55 2 55 20 0 11 -7
20 -15 20 -12 0 -15 18 -15 100 0 60 4 100 10 100 6 0 10 9 10 20 0 12 7 20
16 20 8 0 22 6 30 14 16 17 19 46 4 46 -6 0 -10 29 -10 66 0 67 -13 94 -44 94
-9 0 -16 5 -16 10 0 6 -9 10 -20 10 -13 0 -20 7 -20 20 0 13 7 20 20 20 11 0
20 5 20 10 0 6 14 10 30 10 17 0 30 5 30 10 0 6 9 10 20 10 11 0 20 5 20 10 0
6 9 10 20 10 13 0 20 7 20 18 0 10 9 24 20 32 14 10 20 26 20 50 0 24 6 40 20
50 26 19 30 110 4 110 -9 0 -29 14 -44 30 -17 18 -38 30 -54 30 -19 0 -26 5
-26 20 0 18 -7 20 -70 20 -40 0 -70 4 -70 10 0 6 -22 10 -50 10 -27 0 -50 -4
-50 -10z"/>
</g>
</svg>
